<svg version="1.2" xmlns="http://www.w3.org/2000/svg" viewBox="0 0 679 640" width="679" height="640">
	<title>ChatGPT Image 11 авг</title>
	<style>
		.s0 { fill: #ffffff } 
	</style>
	<g>
		<path class="s0" d="m327 639.3c-5.9-0.9-14.3-3-19.5-5-19.6-7.5-36.1-22.4-45.2-40.9-2.5-5.2-5.7-13.9-6.5-17.7l-0.4-1.7h83.3c70.8 0 83.3 0.1 83.3 0.7 0 0.4-0.5 2.7-1.2 5.1-8.2 28.1-32.3 50.9-61 57.7-10 2.4-23.6 3.1-32.8 1.8z"/>
		<path class="s0" d="m100.5 547.3c-4.4-0.9-11.4-3.8-15.4-6.4-3.8-2.4-11.1-9.5-13.5-13-0.9-1.2-2.4-4.1-3.5-6.2-8.2-16.4-6-34.1 6.2-50.5 1.6-2.2 7.6-8.6 13.2-14.4 11.9-12.3 12.9-13.3 18.6-20.3 23.7-29.4 40.9-66.1 47.8-102.2 3.4-17.5 4.7-31.9 5.4-58.3 0.1-6.4 0.3-16.7 0.5-22.7 0.3-12.6 0.8-21 2.3-31.1 4-29.3 16.7-58.3 36.8-83.7 4.9-6.1 21-22.3 27.1-27.1 13.6-10.7 29.6-19.9 45-25.9 3.7-1.4 7.3-2.8 7.9-3l1.1-0.5v-14.2c0-15.2 0.4-18.6 2.9-26.5 1.3-4.2 5.1-12.2 7.3-15.5 8.4-12.4 21.8-21.5 36.3-24.6 3.2-0.7 6.4-0.9 12.5-0.9 7.3 0 8.9 0.2 13.8 1.4 6 1.5 13.7 4.9 18.7 8.3 11.1 7.6 20.4 20.2 24 32.9 1.9 6.5 2.1 8 2.4 23.6 0.3 13.2 0.4 15.7 1.1 16.1 0.4 0.2 3.4 1.4 6.7 2.7 12.9 5 28.3 13.4 39.5 21.4 37.2 26.7 63.4 68.8 70.4 113.1 1.9 11.8 2.4 18.9 2.4 34.7 0 13.9 0.7 37.5 1.3 45 2.2 27.7 5.8 45.4 14 68.5 1.5 4.2 3.2 8.6 3.7 9.7 0.5 1.2 1.5 3.5 2.3 5.3 4.6 10.7 11.9 23.8 18.8 34.3 9.7 14.4 18.8 25.5 33.1 40.2 13.1 13.4 17.3 19.3 20.6 28.7 2.3 6.7 2.9 10.7 2.6 18.2-0.3 5.4-0.5 7.1-1.9 11.1-4.9 14.8-15.6 25.7-29.9 30.6l-4.9 1.7-237 0.1c-192.8 0-237.6-0.1-240.2-0.6zm221.2-472.3c10-0.9 28.5-0.5 39.4 0.8l2.9 0.4v-9.7c0-12.5-0.9-16-4.9-21.9-3.5-5.1-9.9-9-16.6-10.1-11.4-1.9-23.9 5.9-27.6 17.2-0.9 2.6-1.1 4.8-1.3 13.8l-0.2 10.6 1.4-0.3c0.8-0.1 4-0.5 7-0.8z"/>
		<path class="s0" d="m54.8 417c-3.8-0.9-6.4-2.8-9.4-6.5-11.1-13.9-25-41.9-32.4-65.3-9.3-29.1-13-53.5-13-86.2 0-16.2 0.7-27.1 2.3-38.5 6.4-45.1 21.1-84.8 44.8-120.1 6.6-9.9 9.8-12.4 16.4-12.8 3-0.1 4.3 0 6.7 0.9 5.2 1.9 9.1 6.4 10.3 11.9 1.2 4.9-0.4 9.9-5.2 17.3-4.6 7.1-10.3 16.2-10.3 16.5 0 0.2-0.4 1-0.9 1.7-1.2 1.7-8.4 15.7-10.3 20.1-0.8 1.8-1.9 4.4-2.5 5.7-3.4 7.5-8.9 23.7-11.8 35-2.5 9.6-5.4 25.2-6.3 33.5-0.1 1.2-0.4 4.1-0.7 6.5-0.9 7.5-1.2 28.7-0.6 38 2.8 40 14.6 77.4 35 110.2 1.8 3 4 6.6 5 8.1 2.1 3.6 2.8 6 2.5 10.1-0.4 5.4-3.8 10.1-9.1 12.6-2.9 1.4-7.7 2-10.4 1.3z"/>
		<path class="s0" d="m616.5 417c-4.4-0.9-8.8-4.4-11-8.8-1-2-1.3-3.1-1.3-6.7 0.1-4.9 0.2-5.3 6.8-15.9 12.2-19.9 22.3-43.9 28.5-67.6 6-23.2 8.7-52 7-73.8-3.3-41.9-15.3-80.3-35.4-113.2-1.7-2.9-5.1-8.2-7.5-11.9-5.8-8.8-6.7-11.3-6.5-16.4 0.3-6.4 3.4-11.1 9.1-13.9 2.4-1.2 3.6-1.5 6.8-1.5 3.3 0 4.2 0.2 7.2 1.6 2.8 1.4 3.8 2.3 6.2 5.5 3.9 5.3 14.6 21.6 14.6 22.4 0 0.1 0.7 1.4 1.6 2.8 0.9 1.5 3.3 6.2 5.4 10.4 16.4 32.6 26.2 67.6 29.3 104.7 1.1 13.4 1.2 37.8 0.2 48.1-2 19.8-3.5 28.5-7 43.2-5.3 21.5-11.9 39.5-21.3 57.8-6.3 12.3-14.9 25.9-18.8 29.6-3.2 3-9 4.6-13.9 3.6z"/>
		<path class="s0" d="m102.9 342.3c-2.9-1.2-6.1-3.5-7.6-5.7-5-7.1-12.1-30.5-14.5-47.6-1.7-11.6-2-16.8-2.1-30.3 0-17.1 0.5-23.1 2.8-36.6 2.7-15.4 8.6-34.9 13.9-46.1 5.3-11.1 16.2-14.3 25.7-7.3 3.2 2.4 5.4 7 5.8 11.9 0.2 4.2-0.2 5.8-3.8 14.9-6.3 15.7-9.5 28.7-11.4 45.9-2.7 25.2 1.5 56 10.4 75.8 1.9 4.3 2 4.9 2.1 9.3 0 4.1-0.1 5.1-1.2 7.2-1.5 3.2-4.8 6.3-7.9 7.8-2.9 1.5-9.4 1.8-12.2 0.7z"/>
		<path class="s0" d="m563.5 341.9c-3.3-1.3-7.1-5-8.7-8.3-1.5-3.3-1.5-10.8 0-14.1 8.2-17.5 13.3-47.4 11.7-69.6-1.6-22.6-4.4-35.1-13.2-58.6-1.9-5.1-2.3-6.7-2.3-9.7 0-6.8 3-11.8 8.9-14.7 3-1.4 3.8-1.6 7.3-1.6 3.7 0 4.3 0.2 7.2 1.7 1.7 0.9 3.7 2.5 4.5 3.5 2.5 3.1 5.8 10 8.5 17.8 0.9 2.5 1.8 5 2.1 5.6 0.5 1.2 3 9.6 4.4 15.2 0.6 2.1 1.6 6.9 2.3 10.7 4.4 23.8 4.6 49.9 0.5 73.7-2.7 15.1-9.7 36.8-14 43-1.5 2.3-4.9 4.8-7.8 5.8-3 1-8.1 0.8-11.4-0.4z"/>
	</g>
</svg>