<svg version="1.2" xmlns="http://www.w3.org/2000/svg" viewBox="0 0 597 682" width="597" height="682">
	<title>Kraken-Digital</title>
	<defs>
		<clipPath clipPathUnits="userSpaceOnUse" id="cp1">
			<path d="m419.8 46.99h22v22h-22z"/>
		</clipPath>
	</defs>
	<style>
		.s0 { fill: #017efc } 
	</style>
	<g id="5f83614ec4">
		<path class="s0" d="m371.8 680.6c-9-1.6-11.4-2.4-17.6-5.3-17.7-8.2-31-25.4-35.5-45.8-1.1-4.9-1.3-17.5-0.3-21.9 2.3-10.3 6.9-18.7 13.4-24.8 4.3-4 8.9-6.7 14.4-8.5 3-1 4.6-1.2 9.8-1.2 3.8 0 7.1 0.2 8.2 0.6 9.5 3.1 16 8.5 19.7 16.3 2.2 4.5 2.6 6.2 2.7 10.7 0 3.5-1.4 8.6-2.3 8.6-0.4 0-1.5-1.3-2.6-2.8-3.5-5.4-7-8.3-12.4-10.2-7.3-2.7-15.3 0.6-19 7.8-2.1 4.3-3.1 14.5-1.7 20.8 2.2 11.5 10.1 20 22.1 24.2 4.1 1.4 13.1 1.6 18.1 0.3 7.9-2 13.4-5.2 19.2-11.4 4.6-4.8 7.2-9.3 9.4-16.1 4.7-13.9 1.7-30.1-7.8-43.6-3.6-5.1-13.2-14.3-22.4-21.5-27.8-21.9-36-30.1-47.3-47-7.5-11.2-14.8-27.1-18-38.7-4.6-17.6-6.2-26.8-7.5-45.3-0.5-7.6-0.3-22 0.4-26.6 0.2-1.1 0.1-1.9-0.2-1.9-0.5 0-1.2 2.2-2.4 8.5-0.5 2.4-1 5.1-1.2 6-2.4 10.7-3.1 17.7-3.1 31.3-0.1 12.7 0.7 20 3 31.2 0.3 1.3 1.1 5.2 1.8 8.9l1.5 6.6-1.4 2.1c-1.5 2.6-7.1 10.6-10 14.2-1.1 1.4-2.6 3.2-3.2 4l-1.1 1.5-1.2-1.3c-3.6-4-13.6-18.3-14.1-20.2-0.3-1 0.5-5.1 1.8-10.5 0.7-3 2.8-13.5 3.6-18.3 1-6.1 0.8-31.8-0.3-39.5-0.6-5-2-12-3.4-18.2-0.2-1.1-0.7-3.3-0.9-4.8-1.2-6.6-1.4-5.3-1.1 7.5 0.5 26.8-2.7 49.5-10.4 71.8-10.4 30.6-27.3 52.4-59.1 76.3-23.6 17.7-32.6 29.4-35.9 46.3-0.3 1.5-0.5 5.1-0.5 8 0 7.5 1.2 13 4.7 20.1 1.9 4.1 2.9 5.5 6.3 9.2 7.9 8.5 16.4 12.3 27.2 12.3 15.2 0 26.5-8.1 31.7-22.5 1.7-4.6 2.4-12.3 1.7-16.8-0.4-2.1-0.9-4.2-1.1-4.6-0.2-0.5-0.7-1.5-1.1-2.3-1.1-2.4-4.9-6.2-7.3-7.4-1.9-0.9-3.3-1.1-6.4-1.1-3.6 0-4.4 0.2-7.4 1.7-3.9 2-8.6 6.4-10.4 9.8-2 3.9-3.1 2.8-4.3-4.5-1.2-6.4 1.8-14.2 7.9-20.3 4-4.1 7.2-6.1 12.5-8 4.6-1.6 14.7-1.7 19.2-0.1 14.9 5.1 24.5 16.6 28.1 33.3 0.9 4.5 0.9 16.4-0.1 21.5-2.7 14.3-12.1 30-22.9 38.2-1.6 1.3-3.1 2.5-3.3 2.6-0.6 0.6-5.7 3.5-8.6 4.9-4.2 2.1-11.3 4.4-15.9 5.2-4.7 0.8-18.5 0.9-23.3 0-9.3-1.7-18.2-5.2-25.5-10.1-4-2.6-12-9.2-12.3-10-0.1-0.2-1.1-1.4-2.2-2.6-8.5-9.1-14.4-21-17.5-35.4-1.1-4.6-1.3-23.4-0.3-28.5 3.1-16.4 8.9-28.5 20.8-43.2 4.4-5.5 15.5-16.3 24.5-23.8 15.4-12.7 25.3-23.5 34.8-37.7 4.1-6 9.6-16.4 12-22.5 0.8-2.2 1.8-4.5 2-5 1-2.3 3.5-10.3 4.7-15 8.5-32.5 5.6-59.7-7.5-73.5-7-7.3-15.2-11.6-26-13.6-5-0.9-8.4-0.9-14.5 0.1-2.7 0.4-6.3 1-8 1.2-3.9 0.6-15.1 2-28.7 3.6-6.8 0.8-26.9 0.8-32.8 0-13.3-1.8-23.2-4.8-33.7-10.2-13.3-6.9-24.7-18.3-31.4-31.7-7.8-15.4-8.7-34-2.5-50.2 4.1-10.4 9.9-20 38-61.7 11.7-17.5 14.9-24.1 16.1-33.7 0.6-4.5 0.4-10.6-0.5-15.5-0.3-1.5-0.2-1.6 0.7-1.1 3.2 1.6 8.3 9.7 10.5 16.3 1.9 5.9 2.3 8.8 2.3 17.2 0 7.6-0.5 12.1-1.7 16-0.2 0.7-0.7 2.3-1.1 3.5-0.3 1.3-0.7 2.5-1 2.7-0.2 0.3-0.4 0.8-0.4 1.2 0 1.1-7.7 17-11.2 23.1-0.5 1-1.8 3.2-2.8 5-1 1.8-2.6 4.5-3.4 5.9-0.9 1.5-1.6 2.8-1.6 2.9 0 0.1-0.6 1.2-1.3 2.3-2.6 4.2-8.7 16.8-10.1 21.2-2.6 7.9-2.9 9.2-2.9 16 0 6.8 0.6 9.2 3.5 14.2 4.6 8.2 15.2 16 26.5 19.6 9 2.9 17.1 3.8 26.3 2.9 18.7-1.7 33.1-9.1 38.3-19.6 2.1-4.2 2.3-4.6 2.6-8.4 0.3-3.2 0.3-3.2 2.1-3.7 1.4-0.3 2.6-0.1 5.7 0.9 8.2 2.8 21.5 10.4 27 15.5 3.6 3.3 3.8 3.2 2.4-1.2-3.5-10.2-13.1-21.5-27.6-32.2-9.8-7.2-12.1-9.1-14.9-12.4-5.3-6.2-7.7-13-7.8-21.4 0-4.9 0.3-6.8 1.8-13 1-4 3.5-11.1 5.5-15.5 2.6-5.7 3.5-8.9 3.5-14.2 0-5.5-0.5-7.9-2.8-14.9-1-2.9-2-7.4-2.3-10-0.3-2.9-0.6-18.7-0.7-42.9-0.1-34 0-38.9 0.8-44 2.5-16.3 7.3-25.4 21.1-39.3 20.6-20.6 54.5-42.3 79-50.6 7.4-2.4 10.3-2.8 19-2.8 7.8 0.1 8.5 0.2 16 2.2 3.5 0.9 12.5 4.8 21.2 9.2 17.7 8.9 32.2 18.4 47.5 31.4 18.7 15.6 27.8 27.7 31.3 41.7 2.1 7.8 2.3 12.9 2.3 54.2 0 41.6-0.1 43.1-2.3 49.8-2 6.1-2.7 10.1-2.7 14.9 0 5.5 0.7 8.1 3.6 14.6 1.2 2.8 2.5 5.8 2.8 6.7 0.4 1 0.9 2.2 1.1 2.8 0.2 0.5 0.6 1.5 0.7 2.2 0.2 0.7 0.6 2.1 0.9 3 3.1 11.6 2.3 22.5-2.3 30.5-3.1 5.4-6.1 8.3-17.2 16.7-15 11.2-21.7 18.2-26.4 27.4-1.5 2.9-3.8 9-3.5 9.3 0.1 0.1 1.6-0.9 3.4-2.3 7.1-5.6 17.9-11.8 26.1-15 6.4-2.6 8-2.1 8.5 2.8 0.5 3.4 3 9.1 5.7 12.5 7.8 9.9 29.4 16.9 46.4 15.2 6.4-0.7 8.9-1.2 14.9-3.2 15.1-4.9 25.5-13.9 29.2-25.3 0.8-2.4 1.1-4.5 1.1-8.4 0-10.9-3.8-20.5-17.5-44.4-15.9-27.7-20.5-40-20.5-54.7 0-12.1 2.7-21.5 8.7-29.7 1.6-2.2 5.1-5.2 5.5-4.8 0.1 0.1-0.1 2.3-0.5 4.9-0.9 6.2-0.9 9.9 0 14.6 2 10.3 3.5 12.9 23.6 43 13.4 19.9 15.5 23.2 21.8 33.8 6.5 11.1 9.1 17.3 11.5 27.6 0.8 3.8 0.8 18.3 0 22.8-1.7 8.3-5.9 18-10.9 25.2-3.5 4.8-13.3 14.3-18.5 17.9-7.8 5.2-19.2 10.2-30 13.1-5.2 1.3-14.8 2.2-25.2 2.2-13.3 0-21.9-1-38.3-4.1-2.7-0.6-6.5-1.3-8.5-1.7-2.1-0.4-7-0.6-12.7-0.6-7.6 0-9.7 0.2-11.5 0.9-1.3 0.5-3.7 1.2-5.5 1.7-8.1 1.9-17.9 9-22.8 16.4-2 3.1-4.7 8.4-4.7 9.3 0 0.4-0.2 0.9-0.4 1.2-0.6 0.6-2.4 8.1-3.2 12.8-0.7 5.1-0.2 22.6 0.8 29.4 1.7 10.4 5.7 25.1 9.3 33.8 0.2 0.5 0.8 2 1.3 3.2 4.1 10.1 11.6 22.8 19.1 32.3 8.1 10.1 14.2 16.3 28.3 28.5 16.2 13.9 25.5 24.1 32.6 35.8 6.5 10.6 10.1 20.8 11.7 32.9 0.8 6.2 0.4 22.5-0.7 27.3-2.6 11.9-6.7 20.8-13.9 30.2-6.3 8.5-13.7 14.6-24.1 20-5.3 2.8-7.9 3.7-14.6 5.5-7.4 1.9-18.7 2.5-25.5 1.3zm-106.4-418.2c1.7-1.1 0.9-5.9-2.4-13.3-4.5-10.3-11.2-20.1-19.3-28.2-6.3-6.3-8-7.7-15.9-13-5.6-3.8-20-11.5-20.4-11-0.1 0.1 0.1 4.5 0.5 9.7 1.4 21.8 4.4 31 12.1 38.3 5.4 5.2 11.3 8.1 26.3 13.2 12.6 4.3 17.5 5.4 19.1 4.3zm73.3-0.6c7.3-1.9 19.8-6.4 27.1-9.7 7-3.2 12.9-8.1 16.1-13.5 2.4-4 4.6-11.2 5.4-17.9 0.5-3.1 1.7-23.1 1.5-23.3-0.1-0.2-6.1 2.6-11 5-20.6 10.7-37.1 28.7-45 49.2-4.4 11.1-3.5 12.7 5.9 10.2z"/>
		<path class="s0" d="m99.8 612.6c-20.3-4.5-36.2-19.6-42.4-40.3-3.1-10.5-3.2-21-0.5-33.7 0.9-3.7 2.7-8.5 5.4-14 8.6-17.6 25.9-32.5 48-41.5 1.9-0.8 4.1-1.7 5-2.1 3.1-1.4 9-3.4 21.7-7.7 7.3-2.4 16.2-5.5 19.8-7 26-10.4 41.3-21.8 46.3-34.4 0.9-2.3 1.1-3.9 1.1-8.6 0.1-5.2-0.1-6-1.3-8.6l-1.3-2.9 2.1-1.3c3.5-2.3 13.1-6.2 18.7-7.7 2.6-0.7 2.4-1.1-1.5-2.5-3.3-1.3-9.7-1.8-13.6-1-4 0.7-10 3.7-15 7.3-2.2 1.6-4.1 3-4.3 3.2-0.2 0.1-1.5 1.3-3 2.5-2.8 2.3-4.6 3.8-10.5 9.3-1.8 1.6-11.2 10.9-21.1 20.7-21.8 21.9-24.7 24.6-27.2 25.5-9.9 3.4-22.9 8.8-33 13.6-9.5 4.5-10.4 4.6-18.7 3.2-8.7-1.5-12.9-2.7-19.7-5.5-19.5-7.8-34.7-22.5-44.6-42.8-5.1-10.4-7.5-18.7-9.4-32.2-0.9-6-1-26.1-0.3-31.4 1.9-13.2 4.4-22.5 8.8-31.8 1-2 1.7-3.7 1.7-3.8 0-0.5 5.4-9.5 7.7-12.8 4.3-6.4 9.9-12.8 16.5-18.9 2.8-2.6 11.9-9.1 12.2-8.8 0.3 0.1 0.4 1.9 0.5 4.1 0.3 9.6 4.4 22 9.9 29.8l1.8 2.4-3.9 4.1c-12.4 12.8-18.7 29.6-18.7 50.3 0 19.5 6 36.4 16.8 47.3 8.9 9 21.9 14.1 31.5 12.3 15.8-3 25.4-10.3 53.9-40.6 21.5-22.9 29.5-30 38.7-34.7 16.5-8.3 33.5-8.3 46.2 0.1 10.5 6.8 16.3 17.4 18 32.4 0.8 7.9 0.2 16.1-1.9 25.2-3 12.5-9.7 24.9-19 34.9-9.8 10.7-20.6 18.4-36.7 26.2-9.6 4.6-16.2 7.1-33.8 13-13.8 4.6-21.8 7.5-24.5 8.7-0.8 0.3-2.6 1.1-4.1 1.7-8.7 3.4-19.5 10.4-25.4 16.5-7.5 7.6-11.7 17-11.6 26.5 0 8.9 3.1 16.4 9.3 22.5 4.8 4.7 10.3 7 16.4 7 3.4 0 5.1-0.4 9.5-2.5 3.9-1.9 4.4-2.5 3.7-4-2.3-4.2-3-16.7-1.4-22.5 4.2-15 14-25.4 29.5-31.5 1.4-0.6 2.6-0.9 2.7-0.8 0.1 0.1-0.6 2.1-1.7 4.4-2.8 5.9-4.1 11.3-4.5 19.1-0.4 6.1-0.6 6.8-2.3 10.3-6.7 14.3-11.3 31.9-11.3 43.8 0 3.6-0.2 4.3-0.8 4.6-0.5 0.2-1.8 0.8-2.7 1.4-2 1.2-7.3 3-12 4-4 0.9-15.6 0.9-19.7 0z"/>
		<path class="s0" d="m476.2 612.3c-5.4-1.4-8-2.3-11.8-4.3l-3.2-1.7-0.4-6.6c-0.4-9.8-2.3-19.6-5.8-29.7-1.5-4.3-1.6-4.6-4.9-11.9-2-4.3-2.1-4.5-2.1-10.1 0-5.6-0.4-9-1.7-12.9-1.4-4.1-3.4-8.8-3.9-8.8-0.2 0-0.4-0.3-0.4-0.7 0-1 0-1 4.5 0.9 11.1 4.9 19.3 12.6 24.1 22.4 2.8 5.8 3.9 9.8 4.2 16 0.4 5.9-0.8 13-2.5 15.3-0.6 0.9 0.2 1.7 3.3 3.3 9.3 5.1 19.5 3 27.5-5.6 3.3-3.6 5.5-7.1 7-11.8 1.6-5 1.6-13.4 0-18.8-2.4-7.7-7.7-15.6-13.9-20.8-2.5-2.1-9.9-7.2-10.5-7.2-0.1 0-0.9-0.4-1.6-0.9-1.7-1.1-12.8-6.2-16.8-7.6-1.7-0.6-8.4-2.8-14.8-5-26.2-8.8-36.8-13.1-49.1-20-24.7-13.9-40.6-32.9-46.3-55-2-7.9-2.3-10.6-2.3-20.5 0-11.7 0.9-15.8 4.9-24 2.1-4.6 3.1-5.8 7-9.7 6.7-6.8 12.7-9.6 22.5-10.8 4.2-0.5 6.3-0.5 10.1-0.1 19.5 2.5 29.7 9.5 57.2 39.1 11.1 11.9 23.4 24.4 28.1 28.3 16.2 13.6 28.8 17 43.2 11.6 8-3.1 13.6-7.4 19.5-14.9 3-3.9 7.8-13.2 8.8-17.2 0.2-0.8 0.7-2.8 1.1-4.3 3.7-14.4 3.1-32.2-1.8-47-3.1-9.6-8.5-18.5-15.1-25l-3.4-3.4 1.4-1.9c6-7.7 10.7-21.3 10.7-30.8 0-2.2 0.2-3.4 0.6-3.4 0.8 0 6.1 3.7 10.4 7.3 11.9 9.9 23 25.4 29.1 40.6 3 7.5 4.3 12.3 6.2 22.1 0.9 4.4 1.7 14.4 1.7 20.8 0 12.7-1.8 25-5.4 36-6.5 20.1-20.2 38-37.1 48.6-11.3 7-26.8 12.2-38.7 13l-4.5 0.3-4.3-2.5c-8.1-4.6-15.8-8-29.2-12.8-3.9-1.3-7.8-2.8-8.7-3.3-0.9-0.4-12.4-11.5-25.5-24.6-34.8-34.7-43.4-41.5-55.1-43.2-4.7-0.7-9.2-0.2-13.4 1.6l-3.3 1.3 5.5 1.8c5.9 2 10.4 3.9 14.6 6.3 2.9 1.6 2.9 1.3 1.2 6.4-1.8 5-1.3 11.7 1.2 17.1 4.8 10.3 18.3 20.8 38.2 29.5 2.9 1.2 5.7 2.5 6.3 2.7 3.4 1.6 16.2 6.2 32.2 11.5 11.1 3.7 23.1 9.1 31.2 13.9 14.7 8.8 26.2 20.8 32.5 34.1 5 10.7 6.5 17.4 6.5 29.3 0 8.2-0.3 10.1-2.1 17.7-1.2 4.8-6.7 16.1-8.9 18.4-0.4 0.4-0.7 0.9-0.7 1.1 0 0.8-8.8 9.5-12 11.8-5.8 4.2-13.7 7.7-20.7 9-5.2 1-16.1 0.9-20.6-0.3z"/>
		<path class="s0" d="m83.1 423c-2.3-1.1-6.5-5.9-8.4-9.4-3.5-6.6-4.9-14.7-3.8-21 1.7-9 8.9-17 17.6-19.6 4-1.2 10.9-1.1 15 0.3 9.7 3.2 18.4 12 22.4 22.7 1.1 2.9 1.4 4.8 0.7 4.8-0.2 0-0.9-0.5-1.7-1.2-0.7-0.7-2.7-2.1-4.4-3.2-14.9-9.7-34.6-1-35.8 15.8-0.2 2.2 0 5 0.2 6.6 1.2 5.2 1 5.6-1.8 4.2z"/>
		<path class="s0" d="m510.8 423.4c-0.1-0.2 0-1.7 0.4-3.4 3-12.2-3.3-23.4-15.1-27-1.3-0.3-4.2-0.7-6.4-0.7-6.5 0-11 1.9-19.4 8-0.9 0.7-1 0.7-0.6-1.2 1-5.4 6.1-13.7 11.4-18.5 3.5-3.1 8.6-6.3 12.1-7.4 8.7-2.6 18.2-0.5 25 5.6 4.6 4.3 7.8 11.9 7.8 18.9 0 7.9-3.9 17.5-9.3 22.7-2 2-5.5 3.7-5.9 3z"/>
		<path class="s0" d="m432.2 59q1.2-0.4 1.8-1.1 0.6-0.8 0.6-1.9 0-1.1-0.5-1.8-0.5-0.7-1.5-1.1-0.5-0.2-1.1-0.3-0.7 0-1.5 0h-3.2v10.4h2.1v-3.9h1.1l2.8 3.9h2.5zm0.2-3q0 0.5-0.2 0.8-0.2 0.3-0.7 0.5-0.3 0.1-0.7 0.2-0.5 0-1.1 0h-0.8v-2.8h1.2q0.6 0 1 0 0.4 0.1 0.6 0.2 0.4 0.2 0.6 0.4 0.1 0.3 0.1 0.7z"/>
		<g id="Clip-Path" clip-path="url(#cp1)">
			<g>
				<path class="s0" d="m430.8 69q-2.2 0-4.3-0.9-1.9-0.8-3.5-2.3-1.5-1.6-2.3-3.5-0.9-2.1-0.9-4.3 0-2.2 0.9-4.3 0.8-2 2.3-3.5 1.6-1.5 3.5-2.3 2.1-0.9 4.3-0.9 2.2 0 4.3 0.9 2 0.8 3.5 2.3 1.5 1.5 2.3 3.5 0.9 2.1 0.9 4.3 0 2.2-0.9 4.3-0.8 1.9-2.3 3.5-1.5 1.5-3.5 2.3-2.1 0.9-4.3 0.9zm0-20.2c-5.1 0-9.2 4.1-9.2 9.2 0 5.1 4.1 9.2 9.2 9.2 5.1 0 9.2-4.1 9.2-9.2 0-5.1-4.1-9.2-9.2-9.2z"/>
			</g>
		</g>
	</g>
</svg>