<svg width="20" height="20" viewBox="0 0 20 20" fill="none" xmlns="http://www.w3.org/2000/svg">
<path fill-rule="evenodd" clip-rule="evenodd" d="M12.345 13.3333V18C12.345 18.9205 11.5981 19.6666 10.6768 19.6666H2.00176C1.55931 19.6666 1.13498 19.4911 0.82212 19.1785C0.509259 18.8659 0.333496 18.442 0.333496 18V1.99998C0.333496 1.07951 1.0804 0.333313 2.00176 0.333313H10.6768C11.1192 0.333313 11.5435 0.508908 11.8564 0.821468C12.1693 1.13403 12.345 1.55795 12.345 1.99998V13.3333Z" fill="#E8EDFC"/>
<path fill-rule="evenodd" clip-rule="evenodd" d="M10.6767 0.333313H9.67578C10.1182 0.333313 10.5426 0.508908 10.8554 0.821468C11.1683 1.13403 11.344 1.55795 11.344 1.99998V18C11.344 18.9205 10.5971 19.6666 9.67578 19.6666H10.6767C11.5981 19.6666 12.345 18.9205 12.345 18V1.99998C12.345 1.55795 12.1692 1.13403 11.8564 0.821468C11.5435 0.508908 11.1192 0.333313 10.6767 0.333313Z" fill="#CAD9FC"/>
<path fill-rule="evenodd" clip-rule="evenodd" d="M10.6769 0.333313L9.64262 1.62465C9.45271 1.86182 9.16521 1.99991 8.8612 1.99998H3.8177C3.51369 1.99991 3.22618 1.86182 3.03628 1.62465L2.00195 0.333313" fill="#A4C2F7"/>
<path fill-rule="evenodd" clip-rule="evenodd" d="M9.67609 0.333313L8.64177 1.62465C8.45186 1.86182 8.16436 1.99991 7.86035 1.99998H8.86131C9.16532 1.99991 9.45282 1.86182 9.64273 1.62465L10.6771 0.333313H9.67609Z" fill="#7FACFA"/>
<path d="M16.6595 8.66671C17.028 8.66671 17.3268 8.36823 17.3268 8.00004C17.3268 7.63185 17.028 7.33337 16.6595 7.33337C16.291 7.33337 15.9922 7.63185 15.9922 8.00004C15.9922 8.36823 16.291 8.66671 16.6595 8.66671Z" fill="#E8EDFC"/>
<path d="M15.6585 15.6666C16.0271 15.6666 16.3258 15.3682 16.3258 15C16.3258 14.6318 16.0271 14.3333 15.6585 14.3333C15.29 14.3333 14.9912 14.6318 14.9912 15C14.9912 15.3682 15.29 15.6666 15.6585 15.6666Z" fill="#E8EDFC"/>
<path d="M15.6585 5.66665C16.0271 5.66665 16.3258 5.36817 16.3258 4.99998C16.3258 4.63179 16.0271 4.33331 15.6585 4.33331C15.29 4.33331 14.9912 4.63179 14.9912 4.99998C14.9912 5.36817 15.29 5.66665 15.6585 5.66665Z" fill="#E8EDFC"/>
<path d="M16.6595 12.6666C17.028 12.6666 17.3268 12.3682 17.3268 12C17.3268 11.6318 17.028 11.3333 16.6595 11.3333C16.291 11.3333 15.9922 11.6318 15.9922 12C15.9922 12.3682 16.291 12.6666 16.6595 12.6666Z" fill="#E8EDFC"/>
<path d="M18.9949 10.6666C19.3635 10.6666 19.6623 10.3682 19.6623 9.99998C19.6623 9.63179 19.3635 9.33331 18.9949 9.33331C18.6264 9.33331 18.3276 9.63179 18.3276 9.99998C18.3276 10.3682 18.6264 10.6666 18.9949 10.6666Z" fill="#E8EDFC"/>
<path d="M9.3425 6.33331H3.33674C2.9682 6.33331 2.66943 6.63179 2.66943 6.99998V13C2.66943 13.3682 2.9682 13.6666 3.33674 13.6666H9.3425C9.71105 13.6666 10.0098 13.3682 10.0098 13V6.99998C10.0098 6.63179 9.71105 6.33331 9.3425 6.33331Z" fill="#A4C2F7"/>
<path fill-rule="evenodd" clip-rule="evenodd" d="M9.34227 6.33331H8.34131C8.70985 6.33331 9.00862 6.63179 9.00862 6.99998V13C9.00862 13.3682 8.70985 13.6666 8.34131 13.6666H9.34227C9.71081 13.6666 10.0096 13.3682 10.0096 13V6.99998C10.0096 6.63179 9.71081 6.33331 9.34227 6.33331Z" fill="#7FACFA"/>
<path fill-rule="evenodd" clip-rule="evenodd" d="M0.333496 18C0.333496 18.442 0.509259 18.8659 0.82212 19.1785C1.13498 19.4911 1.55931 19.6666 2.00176 19.6666H3.00272C2.08137 19.6666 1.33446 18.9205 1.33446 18V1.99998C1.33446 1.07951 2.08137 0.333313 3.00272 0.333313H2.00176C1.0804 0.333313 0.333496 1.07951 0.333496 1.99998V18Z" fill="white"/>
<path fill-rule="evenodd" clip-rule="evenodd" d="M0 15.3333H0.667307V18H0V15.3333Z" fill="white"/>
<path d="M0.333653 17C0.517925 17 0.667307 16.8507 0.667307 16.6666C0.667307 16.4826 0.517925 16.3333 0.333653 16.3333C0.149382 16.3333 0 16.4826 0 16.6666C0 16.8507 0.149382 17 0.333653 17Z" fill="#2E73B8"/>
<path d="M2.00192 20H10.6769C11.7821 19.9989 12.6777 19.1041 12.6788 18V13.6667H15.3247V14.0613C14.8651 14.2237 14.5894 14.6932 14.6718 15.1732C14.7543 15.6533 15.1709 16.0041 15.6584 16.0041C16.1459 16.0041 16.5625 15.6533 16.6449 15.1732C16.7273 14.6932 16.4516 14.2237 15.992 14.0613V13.6667C15.992 13.2985 15.6932 13 15.3247 13H10.3433V12.3333H15.7197C15.8823 12.7925 16.3522 13.068 16.8327 12.9856C17.3132 12.9032 17.6644 12.487 17.6644 12C17.6644 11.513 17.3132 11.0968 16.8327 11.0144C16.3522 10.932 15.8823 11.2075 15.7197 11.6667H10.3433V10.3333H18.0553C18.2178 10.7925 18.6878 11.068 19.1683 10.9856C19.6488 10.9032 20 10.487 20 10C20 9.51296 19.6488 9.09676 19.1683 9.0144C18.6878 8.93204 18.2178 9.20748 18.0553 9.66667H10.3433V8.33333H15.7197C15.8823 8.79252 16.3522 9.06796 16.8327 8.9856C17.3132 8.90324 17.6644 8.48704 17.6644 8C17.6644 7.51296 17.3132 7.09676 16.8327 7.0144C16.3522 6.93204 15.8823 7.20748 15.7197 7.66667H10.3433V7H15.3247C15.6932 7 15.992 6.70152 15.992 6.33333V5.93867C16.4516 5.77632 16.7273 5.30678 16.6449 4.82676C16.5625 4.34673 16.1459 3.99586 15.6584 3.99586C15.1709 3.99586 14.7543 4.34673 14.6718 4.82676C14.5894 5.30678 14.8651 5.77632 15.3247 5.93867V6.33333H12.6788V2C12.6777 0.895887 11.7821 0.00110246 10.6769 0H2.00192C0.896748 0.00110246 0.00110352 0.895887 0 2V15.3333C0 15.5174 0.149382 15.6667 0.333653 15.6667C0.517925 15.6667 0.667307 15.5174 0.667307 15.3333V2C0.669515 1.32313 1.17999 0.75576 1.85345 0.681667L2.77533 1.83333C3.02809 2.15013 3.41182 2.33426 3.81733 2.33333H8.8615C9.26701 2.33426 9.65075 2.15013 9.9035 1.83333L10.8254 0.682C11.4987 0.756079 12.0091 1.32325 12.0115 2V6.33333H10.083C9.89475 6.1221 9.6254 6.00089 9.3423 6V5.33333C9.3423 5.14924 9.19292 5 9.00864 5C8.82437 5 8.67499 5.14924 8.67499 5.33333V6H8.00768V5.33333C8.00768 5.14924 7.8583 5 7.67403 5C7.48976 5 7.34038 5.14924 7.34038 5.33333V6H6.67307V5.33333C6.67307 5.14924 6.52369 5 6.33942 5C6.15514 5 6.00576 5.14924 6.00576 5.33333V6H5.33846V5.33333C5.33846 5.14924 5.18907 5 5.0048 5C4.82053 5 4.67115 5.14924 4.67115 5.33333V6H4.00384V5.33333C4.00384 5.14924 3.85446 5 3.67019 5C3.48592 5 3.33653 5.14924 3.33653 5.33333V6C2.78372 6 2.33557 6.44772 2.33557 7H1.66827C1.484 7 1.33461 7.14924 1.33461 7.33333C1.33461 7.51743 1.484 7.66667 1.66827 7.66667H2.33557V8.33333H1.66827C1.484 8.33333 1.33461 8.48257 1.33461 8.66667C1.33461 8.85076 1.484 9 1.66827 9H2.33557V9.66667H1.66827C1.484 9.66667 1.33461 9.81591 1.33461 10C1.33461 10.1841 1.484 10.3333 1.66827 10.3333H2.33557V11H1.66827C1.484 11 1.33461 11.1492 1.33461 11.3333C1.33461 11.5174 1.484 11.6667 1.66827 11.6667H2.33557V12.3333H1.66827C1.484 12.3333 1.33461 12.4826 1.33461 12.6667C1.33461 12.8508 1.484 13 1.66827 13H2.33557C2.33557 13.5523 2.78372 14 3.33653 14V14.6667C3.33653 14.8508 3.48592 15 3.67019 15C3.85446 15 4.00384 14.8508 4.00384 14.6667V14H4.67115V14.6667C4.67115 14.8508 4.82053 15 5.0048 15C5.18907 15 5.33846 14.8508 5.33846 14.6667V14H6.00576V14.6667C6.00576 14.8508 6.15514 15 6.33942 15C6.52369 15 6.67307 14.8508 6.67307 14.6667V14H7.34038V14.6667C7.34038 14.8508 7.48976 15 7.67403 15C7.8583 15 8.00768 14.8508 8.00768 14.6667V14H8.67499V14.6667C8.67499 14.8508 8.82437 15 9.00864 15C9.19292 15 9.3423 14.8508 9.3423 14.6667V14C9.6254 13.9991 9.89475 13.8779 10.083 13.6667H12.0115V18C12.0115 18.7364 11.414 19.3333 10.6769 19.3333H2.00192C1.26483 19.3333 0.667307 18.7364 0.667307 18C0.667307 17.8159 0.517925 17.6667 0.333653 17.6667C0.149382 17.6667 0 17.8159 0 18C0.00110352 19.1041 0.896748 19.9989 2.00192 20ZM15.6584 15.3333C15.4741 15.3333 15.3247 15.1841 15.3247 15C15.3247 14.8159 15.4741 14.6667 15.6584 14.6667C15.8426 14.6667 15.992 14.8159 15.992 15C15.992 15.1841 15.8426 15.3333 15.6584 15.3333ZM16.6593 11.6667C16.8436 11.6667 16.993 11.8159 16.993 12C16.993 12.1841 16.8436 12.3333 16.6593 12.3333C16.475 12.3333 16.3257 12.1841 16.3257 12C16.3257 11.8159 16.475 11.6667 16.6593 11.6667ZM18.9949 9.66667C19.1792 9.66667 19.3285 9.81591 19.3285 10C19.3285 10.1841 19.1792 10.3333 18.9949 10.3333C18.8106 10.3333 18.6612 10.1841 18.6612 10C18.6612 9.81591 18.8106 9.66667 18.9949 9.66667ZM16.6593 7.66667C16.8436 7.66667 16.993 7.81591 16.993 8C16.993 8.1841 16.8436 8.33333 16.6593 8.33333C16.475 8.33333 16.3257 8.1841 16.3257 8C16.3257 7.81591 16.475 7.66667 16.6593 7.66667ZM15.6584 4.66667C15.8426 4.66667 15.992 4.81591 15.992 5C15.992 5.1841 15.8426 5.33333 15.6584 5.33333C15.4741 5.33333 15.3247 5.1841 15.3247 5C15.3247 4.81591 15.4741 4.66667 15.6584 4.66667ZM9.382 1.41667C9.25586 1.57509 9.06413 1.66718 8.8615 1.66667H3.81733C3.61471 1.66718 3.42297 1.57509 3.29683 1.41667L2.69625 0.666667H9.98258L9.382 1.41667ZM9.3423 13.3333H3.33653C3.15226 13.3333 3.00288 13.1841 3.00288 13V7C3.00288 6.81591 3.15226 6.66667 3.33653 6.66667H9.3423C9.52657 6.66667 9.67595 6.81591 9.67595 7V13C9.67595 13.1841 9.52657 13.3333 9.3423 13.3333Z" fill="#2E73B8"/>
<path fill-rule="evenodd" clip-rule="evenodd" d="M10.3433 18.3333C10.5276 18.3333 10.6769 18.1841 10.6769 18C10.6769 17.8159 10.5276 17.6666 10.3433 17.6666H2.33561C2.15133 17.6666 2.00195 17.8159 2.00195 18C2.00195 18.1841 2.15133 18.3333 2.33561 18.3333H10.3433Z" fill="#2E73B8"/>
<path d="M6.35772 10.5443C6.35571 10.5393 6.35338 10.5347 6.35104 10.5293L5.47687 8.53335C5.42371 8.41208 5.30376 8.33374 5.17124 8.33374C5.03873 8.33374 4.91878 8.41208 4.86562 8.53335L3.69783 11.2C3.63079 11.3672 3.70882 11.5574 3.87404 11.6294C4.03925 11.7015 4.2319 11.6294 4.30908 11.4667L4.51361 11H5.82888L6.0334 11.4667C6.08645 11.5881 6.20643 11.6666 6.33903 11.6667C6.38499 11.6668 6.43045 11.6572 6.47249 11.6387C6.55361 11.6033 6.61732 11.5371 6.64961 11.4548C6.6819 11.3725 6.68012 11.2807 6.64466 11.1997L6.35772 10.5443ZM4.80423 10.3333L5.17124 9.50001L5.53826 10.3333H4.80423Z" fill="#2E73B8"/>
<path fill-rule="evenodd" clip-rule="evenodd" d="M8.6751 8.99998C8.85938 8.99998 9.00876 8.85074 9.00876 8.66665C9.00876 8.48255 8.85938 8.33331 8.6751 8.33331H7.34049C7.15622 8.33331 7.00684 8.48255 7.00684 8.66665C7.00684 8.85074 7.15622 8.99998 7.34049 8.99998H7.67414V11H7.34049C7.15622 11 7.00684 11.1492 7.00684 11.3333C7.00684 11.5174 7.15622 11.6666 7.34049 11.6666H8.6751C8.85938 11.6666 9.00876 11.5174 9.00876 11.3333C9.00876 11.1492 8.85938 11 8.6751 11H8.34145V8.99998H8.6751Z" fill="#2E73B8"/>
</svg>
